<svg width="80" height="69" viewBox="0 0 80 69" fill="none" xmlns="http://www.w3.org/2000/svg">
<path d="M7.27273 69C5.27273 69 3.56121 68.2894 2.13818 66.8683C0.712728 65.4447 0 63.7342 0 61.7368V18.1579C0 17.1289 0.349091 16.2658 1.04727 15.5686C1.74303 14.8737 2.60606 14.5263 3.63636 14.5263C4.66667 14.5263 5.53091 14.8737 6.22909 15.5686C6.92485 16.2658 7.27273 17.1289 7.27273 18.1579V61.7368H65.4545C66.4848 61.7368 67.3479 62.0855 68.0436 62.7827C68.7418 63.4776 69.0909 64.3395 69.0909 65.3684C69.0909 66.3974 68.7418 67.2593 68.0436 67.9541C67.3479 68.6514 66.4848 69 65.4545 69H7.27273ZM21.8182 54.4737C19.8182 54.4737 18.1067 53.7631 16.6836 52.3419C15.2582 50.9184 14.5455 49.2079 14.5455 47.2105V7.26316C14.5455 5.26579 15.2582 3.55532 16.6836 2.13174C18.1067 0.710579 19.8182 0 21.8182 0H37C37.9697 0 38.8945 0.181579 39.7745 0.544737C40.6521 0.907895 41.4242 1.42237 42.0909 2.08816L47.2727 7.26316H72.7273C74.7273 7.26316 76.44 7.97495 77.8655 9.39853C79.2885 10.8197 80 12.5289 80 14.5263V47.2105C80 49.2079 79.2885 50.9184 77.8655 52.3419C76.44 53.7631 74.7273 54.4737 72.7273 54.4737H21.8182ZM21.8182 47.2105H72.7273V14.5263H44.2727L37 7.26316H21.8182V47.2105ZM21.8182 47.2105V7.26316V47.2105Z" fill="black"/>
</svg>
