<svg width="97" height="87" viewBox="0 0 97 87" fill="none" xmlns="http://www.w3.org/2000/svg">
<path d="M16.6736 0L11.7959 4.59978L19.0536 11.4504L23.9244 6.8506L16.6701 0H16.6736ZM80.3299 0L73.0722 6.8506L77.9464 11.4504L85.2006 4.60305L80.3264 0H80.3299ZM48.5 2.04144C47.3568 2.05453 46.1997 2.11669 45.0357 2.25082C45.0011 2.25082 44.9664 2.24428 44.9318 2.25082C30.8806 3.77208 19.6979 14.4929 17.7545 27.7034C16.2025 38.3359 20.8446 47.9771 28.5804 54.1865C31.7447 56.7368 33.885 60.2364 34.6429 64.0992V83.7285H42.5414C43.747 85.6816 45.9468 87 48.5 87C51.0532 87 53.253 85.6816 54.4586 83.7285H62.3571V70.6423H62.6828V66.7557C62.6828 61.9597 65.3226 57.1243 69.6114 53.3653C75.3482 47.9411 79.6786 40.2366 79.6786 31.3871C79.6786 15.2257 65.5928 1.89095 48.5 2.04144ZM48.5 8.58452C61.8895 8.40785 72.75 18.759 72.75 31.3871C72.75 38.2377 69.3896 44.2705 64.7371 48.6609L64.848 48.7655C60.2244 52.7918 57.2348 58.2164 56.3951 64.1025H41.2423C40.4802 58.4951 37.9339 53.0676 33.122 49.1745C27.0006 44.2672 23.3528 36.8735 24.5722 28.5245C26.0861 18.2192 34.9408 9.93239 45.7909 8.79716C46.6867 8.67922 47.5889 8.60932 48.4931 8.58779L48.5 8.58452ZM0 31.3871V37.9302H10.3929V31.3871H0ZM86.6071 31.3871V37.9302H97V31.3871H86.6071ZM19.0536 57.867L11.7994 64.7143L16.6736 69.3173L23.9209 62.4667L19.0536 57.867ZM77.9464 57.867L73.0756 62.4667L80.3264 69.3173L85.2006 64.7143L77.9464 57.867ZM41.5714 70.6456H55.4286V77.1887H41.5714V70.6456Z" fill="black"/>
</svg>
