<svg width="98" height="98" viewBox="0 0 98 98" fill="none" xmlns="http://www.w3.org/2000/svg">
<path d="M39.8125 64.3125H80.1456L72.2444 72.2444L76.5625 76.5625L91.875 61.25L76.5625 45.9375L72.2444 50.2556L80.1456 58.1875H39.8125V64.3125Z" fill="black"/>
<path d="M67.375 42.8751V30.6251C67.3773 30.222 67.3001 29.8225 67.1477 29.4493C66.9953 29.0762 66.7707 28.7368 66.4869 28.4507L45.0494 7.01318C44.7632 6.72934 44.4238 6.50478 44.0507 6.35238C43.6776 6.19997 43.278 6.12272 42.875 6.12505H12.25C10.6255 6.12505 9.06763 6.77036 7.91897 7.91902C6.77031 9.06768 6.125 10.6256 6.125 12.2501V85.7501C6.125 87.3745 6.77031 88.9324 7.91897 90.0811C9.06763 91.2297 10.6255 91.8751 12.25 91.8751H61.25C62.8745 91.8751 64.4324 91.2297 65.581 90.0811C66.7297 88.9324 67.375 87.3745 67.375 85.7501V79.6251H61.25V85.7501H12.25V12.2501H36.75V30.6251C36.75 32.2495 37.3953 33.8074 38.544 34.9561C39.6926 36.1047 41.2505 36.7501 42.875 36.7501H61.25V42.8751H67.375ZM42.875 30.6251V13.5057L59.9944 30.6251H42.875Z" fill="black"/>
</svg>
